# xmcd
#
# Track frame offsets:
#	150
#	18204
#	36205
#	52180
#	72800
#	90395
#	109826
#	127907
#	144044
#	165501
#	179370
#	196857
#
# Disc length: 2977 seconds
#
# Revision: 1
# Processed by: cddbd v1.5.1PL0 Copyright (c) Steve Scherf et al.
# Submitted via: CDex 1.50Beta5
#
DISCID=930b9f0c
DTITLE=Hysteric Blue - JUNCTION
DYEAR=1900
DGENRE=Pop
TTITLE0=真夏の夜のファンタジー
TTITLE1=DOLCE〜夏色恋慕〜
TTITLE2=カクテル
TTITLE3=スコール
TTITLE4=ゆうべのキス
TTITLE5=99%LATE
TTITLE6=笑おう
TTITLE7=オレンジ
TTITLE8=君のいない街
TTITLE9=はれのちくもり
TTITLE10=旅路
TTITLE11=LOVE
EXTD=
EXTT0=
EXTT1=
EXTT2=
EXTT3=
EXTT4=
EXTT5=
EXTT6=
EXTT7=
EXTT8=
EXTT9=
EXTT10=
EXTT11=
PLAYORDER=
